D:\school\WTK\thesis\model\3dpredictsim\Results\batch_windlass\Pog_s1_tmt_bCst_d05_k1000_WL10_ig24_pas_GRF.mot
nRows=22
nColumns=19

name D:\school\WTK\thesis\model\3dpredictsim\Results\batch_windlass\Pog_s1_tmt_bCst_d05_k1000_WL10_ig24_pas_GRF.mot
datacolumns 19
datarows 22
range 0.5299735906 0.7525624986
endheader
time 	ground_force_vx	ground_force_vy	ground_force_vz	ground_force_px	ground_force_py	ground_force_pz	1_ground_force_vx	1_ground_force_vy	1_ground_force_vz	1_ground_force_px	1_ground_force_py	1_ground_force_pz	ground_torque_x	ground_torque_y	ground_torque_z	1_ground_torque_x	1_ground_torque_y	1_ground_torque_z
        0.5299735906	       85.4895624126	      388.3643009390	        1.1539931660	        0.3187125315	        0.0000000000	        0.0354797056	     -132.8552928669	      117.1846885121	      -35.6903634876	        0.7860714020	        0.0000000000	       -0.0435934885	        0.0000000000	        0.0000000000	        0.0000000000	        0.0000000000	        0.0000000000	        0.0000000000	
        0.5405730624	       54.1246025317	      288.8393096217	       10.6878598904	        0.3261153609	        0.0000000000	        0.0322641553	     -120.6452731671	      256.3657046056	      -46.7016163622	        0.8016761756	        0.0000000000	       -0.0447100574	        0.0000000000	        0.0000000000	        0.0000000000	        0.0000000000	        0.0000000000	        0.0000000000	
        0.5511725342	       23.8339772744	      189.0795076437	       11.8915404535	        0.3394753757	        0.0000000000	        0.0252888884	      -70.9633241198	      507.3490507151	       -8.8233811385	        0.8122199338	        0.0000000000	       -0.0448042547	        0.0000000000	        0.0000000000	        0.0000000000	        0.0000000000	        0.0000000000	        0.0000000000	
        0.5617720060	        4.8381577081	      144.9877895474	       12.7571174203	        0.3459618324	        0.0000000000	        0.0212632591	      -96.8832180594	      748.5367059899	        9.8059493503	        0.8226438941	        0.0000000000	       -0.0443151028	        0.0000000000	        0.0000000000	        0.0000000000	        0.0000000000	        0.0000000000	        0.0000000000	
        0.5723714778	       -0.8578170998	      110.7629283875	       13.3085790798	        0.3461804923	        0.0000000000	        0.0213628901	     -120.8322489282	      904.6265168941	       13.6762335654	        0.8326899977	        0.0000000000	       -0.0432483197	        0.0000000000	        0.0000000000	        0.0000000000	        0.0000000000	        0.0000000000	        0.0000000000	
        0.5829709496	       -8.9188897138	       68.6071072975	       11.8935447357	        0.3460919536	        0.0000000000	        0.0214519162	     -124.9892534707	      926.2855440151	       11.5256339725	        0.8379713416	        0.0000000000	       -0.0425252484	        0.0000000000	        0.0000000000	        0.0000000000	        0.0000000000	        0.0000000000	        0.0000000000	
        0.5935704214	       -8.9517629010	       23.0903406305	        5.2791029135	        0.3459428490	        0.0000000000	        0.0212601935	     -113.1248414587	      889.1151403184	        9.5284783661	        0.8412111986	        0.0000000000	       -0.0419907464	        0.0000000000	        0.0000000000	        0.0000000000	        0.0000000000	        0.0000000000	        0.0000000000	
        0.6041698933	        0.1434419416	       -0.1450313193	       -0.0140261623	        0.0000000000	        0.0000000000	        0.0000000000	      -99.7688084912	      841.3872991801	        9.5310257992	        0.8441110049	        0.0000000000	       -0.0415642469	        0.0000000000	        0.0000000000	        0.0000000000	        0.0000000000	        0.0000000000	        0.0000000000	
        0.6147693651	        0.0002670732	       -0.0002214836	        0.0000016162	        0.0000000000	        0.0000000000	        0.0000000000	      -86.2651362947	      796.3777827669	       11.4102555500	        0.8468624569	        0.0000000000	       -0.0412353823	        0.0000000000	        0.0000000000	        0.0000000000	        0.0000000000	        0.0000000000	        0.0000000000	
        0.6253688369	        0.0000571688	       -0.0000408545	        0.0000021165	        0.0000000000	        0.0000000000	        0.0000000000	      -73.2763023656	      755.6414857678	       12.5642760261	        0.8496490886	        0.0000000000	       -0.0410267326	        0.0000000000	        0.0000000000	        0.0000000000	        0.0000000000	        0.0000000000	        0.0000000000	
        0.6359683087	        0.0002637983	       -0.0001684034	        0.0000138140	        0.0000000000	        0.0000000000	        0.0000000000	      -61.2334553976	      718.8422047460	       13.5285926327	        0.8525863864	        0.0000000000	       -0.0409117063	        0.0000000000	        0.0000000000	        0.0000000000	        0.0000000000	        0.0000000000	        0.0000000000	
        0.6465677805	        0.0049324000	       -0.0028851018	        0.0003084073	        0.0000000000	        0.0000000000	        0.0000000000	      -50.6266633330	      687.3634092452	       15.4955516352	        0.8565039962	        0.0000000000	       -0.0408181749	        0.0000000000	        0.0000000000	        0.0000000000	        0.0000000000	        0.0000000000	        0.0000000000	
        0.6571672523	       -0.0276450431	        0.0150841732	       -0.0019742443	        0.0000000000	        0.0000000000	        0.0000000000	      -42.8125541578	      661.7160535546	       17.5053015144	        0.8615495469	        0.0000000000	       -0.0407184900	        0.0000000000	        0.0000000000	        0.0000000000	        0.0000000000	        0.0000000000	        0.0000000000	
        0.6677667241	       -0.0246802603	        0.0127150186	       -0.0019634061	        0.0000000000	        0.0000000000	        0.0000000000	      -37.1665041566	      641.2538582112	       19.0234612059	        0.8671329708	        0.0000000000	       -0.0406239509	        0.0000000000	        0.0000000000	        0.0000000000	        0.0000000000	        0.0000000000	        0.0000000000	
        0.6783661959	       -0.0160876588	        0.0078895306	       -0.0013942717	        0.0000000000	        0.0000000000	        0.0000000000	      -32.4154500631	      625.1965716119	       19.9956593287	        0.8729974408	        0.0000000000	       -0.0405334721	        0.0000000000	        0.0000000000	        0.0000000000	        0.0000000000	        0.0000000000	        0.0000000000	
        0.6889656677	       -0.0123653961	        0.0058106691	       -0.0011424376	        0.0000000000	        0.0000000000	        0.0000000000	      -28.6988554452	      612.8661452723	       20.4925156446	        0.8790117142	        0.0000000000	       -0.0404396810	        0.0000000000	        0.0000000000	        0.0000000000	        0.0000000000	        0.0000000000	        0.0000000000	
        0.6995651396	       -0.0121783008	        0.0055136566	       -0.0011761107	        0.0000000000	        0.0000000000	        0.0000000000	      -25.7377154703	      603.2495389087	       20.4053984425	        0.8849080437	        0.0000000000	       -0.0403549140	        0.0000000000	        0.0000000000	        0.0000000000	        0.0000000000	        0.0000000000	        0.0000000000	
        0.7101646114	       -0.0153423678	        0.0067216470	       -0.0015186042	        0.0000000000	        0.0000000000	        0.0000000000	      -23.0478675317	      596.0254770539	       19.8077312975	        0.8906970805	        0.0000000000	       -0.0402716836	        0.0000000000	        0.0000000000	        0.0000000000	        0.0000000000	        0.0000000000	        0.0000000000	
        0.7207640832	       -0.0236745809	        0.0100735431	       -0.0023646442	        0.0000000000	        0.0000000000	        0.0000000000	      -20.7515246288	      590.7166191268	       19.1007340942	        0.8963718410	        0.0000000000	       -0.0401807777	        0.0000000000	        0.0000000000	        0.0000000000	        0.0000000000	        0.0000000000	        0.0000000000	
        0.7313635550	       -0.0419662431	        0.0174006405	       -0.0041809161	        0.0000000000	        0.0000000000	        0.0000000000	      -19.2825795211	      586.5536776535	       18.3729690502	        0.9018076681	        0.0000000000	       -0.0400873642	        0.0000000000	        0.0000000000	        0.0000000000	        0.0000000000	        0.0000000000	        0.0000000000	
        0.7419630268	       -0.0795816892	        0.0322612758	       -0.0078501963	        0.0000000000	        0.0000000000	        0.0000000000	      -17.8844222076	      582.3792870202	       17.6539552467	        0.9068787146	        0.0000000000	       -0.0400067153	        0.0000000000	        0.0000000000	        0.0000000000	        0.0000000000	        0.0000000000	        0.0000000000	
        0.7525624986	       -0.1512574392	        0.0601483073	       -0.0147226389	        0.0000000000	        0.0000000000	        0.0000000000	      -16.0609653000	      577.9564977775	       17.2782766720	        0.9117532887	        0.0000000000	       -0.0399232224	        0.0000000000	        0.0000000000	        0.0000000000	        0.0000000000	        0.0000000000	        0.0000000000	
